<svg width="256" height="256" viewBox="0 0 256 256" fill="none" xmlns="http://www.w3.org/2000/svg">
  <defs>
    <linearGradient id="obsyd-ring" x1="34" y1="46" x2="209" y2="208" gradientUnits="userSpaceOnUse">
      <stop stop-color="#7C6FF0"/>
      <stop offset="0.55" stop-color="#5D8BEE"/>
      <stop offset="1" stop-color="#42D6A5"/>
    </linearGradient>
    <linearGradient id="obsyd-bars" x1="84" y1="182" x2="170" y2="90" gradientUnits="userSpaceOnUse">
      <stop stop-color="#59E0B2"/>
      <stop offset="1" stop-color="#37C6A2"/>
    </linearGradient>
  </defs>
  <path d="M128 28C72.7715 28 28 72.7715 28 128C28 172.753 57.395 210.638 98 223.463V190.329C76.4162 179.355 61.6 156.941 61.6 131.067C61.6 94.4217 91.6887 64.7333 128.5 64.7333C156.546 64.7333 180.546 81.9528 190.511 106.367L216.881 85.3704C201.185 51.1986 167.168 28 128 28Z" fill="url(#obsyd-ring)"/>
  <path d="M216.941 117.004L190.904 137.854C186.553 174.983 158.387 204.707 122.767 210.849V244C175.414 241.237 218 198.213 218 145.067C218 135.629 216.653 126.506 214.141 117.867L216.941 117.004Z" fill="url(#obsyd-ring)"/>
  <path d="M92 157.129C92 154.678 93.1023 152.357 95.0015 150.838L116.734 133.453C121.67 129.504 129 133.018 129 139.344V226C129 231.523 124.523 236 119 236H102C96.4772 236 92 231.523 92 226V157.129Z" fill="url(#obsyd-bars)"/>
  <path d="M136 121.38C136 118.788 137.197 116.341 139.246 114.748L161.315 97.5908C166.259 93.746 173.5 97.2692 173.5 103.534V226C173.5 231.523 169.023 236 163.5 236H146C140.477 236 136 231.523 136 226V121.38Z" fill="url(#obsyd-bars)"/>
  <path d="M165.913 154.057C161.804 157.24 162.384 163.574 167.02 165.963L201.406 123.095V116.906L165.913 154.057Z" fill="#0F172A"/>
</svg>
